<?xml version="1.0" encoding="UTF-8"?>
<svg xmlns="http://www.w3.org/2000/svg" xmlns:xlink="http://www.w3.org/1999/xlink" width="32px" height="32px" viewBox="-6 -3 44 44" version="1.1">
<g id="surface1">
<path style=" stroke:none;fill-rule:nonzero;fill:rgb(0%,0%,0%);fill-opacity:1;" d="M 28.039062 20.625 C 26.457031 18.960938 24.558594 17.75 22.5625 17.089844 C 24.550781 15.292969 25.804688 12.691406 25.804688 9.804688 C 25.804688 4.398438 21.40625 0 16 0 C 10.59375 0 6.195312 4.398438 6.195312 9.804688 C 6.195312 12.691406 7.449219 15.292969 9.4375 17.089844 C 7.441406 17.75 5.542969 18.960938 3.960938 20.625 C 1.40625 23.320312 0 26.808594 0 30.453125 L 0 32 L 32 32 L 32 30.453125 C 32 26.808594 30.59375 23.320312 28.039062 20.625 Z M 9.289062 9.804688 C 9.289062 6.105469 12.300781 3.097656 16 3.097656 C 19.699219 3.097656 22.710938 6.105469 22.710938 9.804688 C 22.710938 13.507812 19.699219 16.515625 16 16.515625 C 12.300781 16.515625 9.289062 13.507812 9.289062 9.804688 Z M 3.207031 28.902344 C 3.972656 23.492188 8.667969 19.613281 12.902344 19.613281 L 19.097656 19.613281 C 23.332031 19.613281 28.027344 23.492188 28.792969 28.902344 Z M 3.207031 28.902344 "/>
</g>
</svg>
